<svg width="32" height="32" viewBox="0 0 32 32" fill="none" xmlns="http://www.w3.org/2000/svg">
<path d="M31.9067 5.65678C31.5514 4.40235 30.4092 3.14793 28.3531 1.75147C26.7032 0.639051 24.9517 0 23.5557 0C23.2764 0 23.0227 0.0236627 22.7688 0.0710039C22.1343 0.189349 21.5758 0.61538 21.2204 1.25443C20.7889 2.01183 20.6874 3.02958 20.9666 3.64497C21.0681 3.83432 21.1951 4.07098 21.3474 4.284C20.0021 5.04141 19.2405 5.25443 19.139 5.27812C22.6419 6.36682 25.561 8.63906 27.3886 11.5976L27.4139 11.3136C27.4901 10.5325 27.7439 9.6331 28.0993 8.71004C28.4546 8.80471 28.81 8.85208 29.1654 8.85208C30.1046 8.85208 30.9168 8.49702 31.4245 7.85796C31.9322 7.2189 32.1353 6.36682 31.9067 5.65678Z" fill="#5E12A0"/>
<path d="M28.2517 8.02374C30.5616 8.6155 31.5007 6.95872 31.1962 5.84625C30.8662 4.73385 29.8001 3.59774 27.9217 2.31963C26.0434 1.04152 24.1397 0.520811 22.9213 0.757501C21.7028 0.994183 21.3475 2.722 21.6521 3.38472C21.779 3.64507 22.0582 4.02374 22.4389 4.44978C21.9567 4.75746 21.4998 4.99417 21.119 5.20719C23.4543 6.17762 25.485 7.69244 27.008 9.58593C27.1856 8.94687 27.4395 8.37879 27.6679 7.88177C27.8456 7.90546 28.0487 7.95276 28.2517 8.02374Z" fill="url(#paint0_radial_310_272)"/>
<path d="M15.027 31.2189C22.8635 31.2189 29.2162 25.2953 29.2162 17.9882C29.2162 10.6811 22.8635 4.75745 15.027 4.75745C7.19052 4.75745 0.837769 10.6811 0.837769 17.9882C0.837769 25.2953 7.19052 31.2189 15.027 31.2189Z" fill="url(#paint1_radial_310_272)"/>
<path opacity="0.6" d="M30.0284 4.7573C28.0993 2.86379 26.4748 2.36675 24.5203 1.96439C22.9973 1.63302 23.4035 0.828294 25.2564 0.993973C24.368 0.709949 23.5303 0.638945 22.9211 0.757283C21.7027 0.993973 21.3474 2.72178 21.652 3.38451C21.7789 3.64486 22.0581 4.02357 22.4388 4.44961C21.7535 4.87565 21.1697 5.18334 20.6874 5.42004C20.9159 5.51471 21.195 5.63298 21.5251 5.79871C22.3881 6.22475 23.3273 6.93479 23.3273 6.93479C21.9058 5.79871 22.2104 5.278 24.1649 3.99989C24.7741 3.59753 25.891 3.64486 26.9317 4.14193C27.9724 4.63894 29.1908 5.89338 29.1908 5.89338L28.0232 7.9762C28.0993 7.99989 28.1755 8.02357 28.2516 8.04726C28.9877 8.23659 29.5715 8.18922 30.0284 8.02357C30.5615 7.71589 31.9576 6.67447 30.0284 4.7573Z" fill="#A98698"/>
<path d="M24.4948 3.10053C25.0025 3.28988 25.6624 3.62124 26.4747 4.11831C27.4393 4.71 28.2769 5.37275 28.8099 5.89345C27.9215 6.98216 27.3377 8.47329 26.9824 9.51471C27.1601 9.75141 27.3632 9.98812 27.5408 10.2248C27.7185 9.63306 28.0231 8.7573 28.4292 7.88161C28.5308 7.9053 28.6577 7.9053 28.7846 7.9053C29.0892 7.9053 29.4446 7.85792 29.7238 7.6449C29.9269 7.50286 30.1553 7.24255 30.1299 6.76914C30.1299 6.31949 29.7491 5.75141 28.9623 5.06506C28.4039 4.56796 27.6423 4.02357 26.8809 3.52657C24.6979 2.17745 23.1749 1.79875 22.4896 2.43781C22.0327 2.86384 22.0834 3.38456 22.2357 3.76326C21.4234 4.26028 20.7381 4.61533 20.2812 4.85204C20.5858 4.94671 20.8651 5.06506 21.1696 5.18333C21.9819 4.78098 23.1495 4.09463 24.4948 3.10053ZM29.2923 6.48514C29.3684 6.60349 29.3938 6.72184 29.3938 6.79282C29.3938 7.00584 29.3176 7.07682 29.2669 7.1242C29.1653 7.19518 28.9622 7.24255 28.7846 7.24255C28.9369 6.95855 29.1146 6.72184 29.2923 6.48514ZM23.0226 2.95852C23.0987 2.88751 23.3018 2.84017 23.6318 2.88751C23.378 3.07686 23.1242 3.24254 22.8703 3.40822C22.8449 3.24254 22.8703 3.07686 23.0226 2.95852Z" fill="#5E12A0"/>
<path d="M15.0269 3.97632C6.72656 3.97632 0 10.2486 0 17.9882C0 25.7278 6.72656 32 15.0269 32C23.3272 32 30.0537 25.7278 30.0537 17.9882C30.0537 10.2486 23.3018 3.97632 15.0269 3.97632ZM15.0269 31.2189C7.18344 31.2189 0.83765 25.3018 0.83765 17.9882C0.83765 10.6746 7.18344 4.75742 15.0269 4.75742C22.8703 4.75742 29.2161 10.6746 29.2161 17.9882C29.2161 25.3018 22.8449 31.2189 15.0269 31.2189Z" fill="#5E12A0"/>
<path opacity="0.6" d="M15.027 31.2189C22.8635 31.2189 29.2162 25.2953 29.2162 17.9882C29.2162 10.6811 22.8635 4.75745 15.027 4.75745C7.19052 4.75745 0.837769 10.6811 0.837769 17.9882C0.837769 25.2953 7.19052 31.2189 15.027 31.2189Z" fill="url(#paint2_linear_310_272)"/>
<path opacity="0.6" d="M14.9254 29.6094C7.18352 28.4496 1.92918 21.6568 3.19832 14.4378C3.75678 11.2426 5.48279 8.5207 7.91963 6.55615C4.36595 8.47333 1.72611 11.8106 1.01539 15.8816C-0.228396 23.1005 5.02591 29.8935 12.7425 31.0532C17.0576 31.7159 21.2204 30.4615 24.2918 27.9999C21.5758 29.4674 18.276 30.1064 14.9254 29.6094Z" fill="#A98698"/>
<path opacity="0.6" d="M17.2857 4.94671C13.7067 4.40232 10.2293 5.15973 7.38637 6.8402C7.33558 6.88757 7.28487 6.93487 7.28487 6.93487C8.37627 6.3195 9.97547 5.7751 9.97547 5.7751C5.86337 7.99997 4.59424 10.5325 4.59424 10.5325C6.19339 7.64498 10.8892 5.60946 14.5698 5.46742C18.2504 5.32546 20.6618 6.34318 23.6062 8.54436C26.5506 10.7692 28.3275 15.3136 28.1498 18.9113C27.9975 22.5088 25.9669 25.4201 25.9669 25.4201C27.363 23.7397 28.2007 22.5088 28.7337 21.2544C28.8353 20.8757 28.9368 20.4971 28.9876 20.0946C30.2567 12.8994 25.0276 6.10648 17.2857 4.94671Z" fill="url(#paint3_linear_310_272)"/>
<path d="M28.5055 17.8698C28.5055 24.8047 22.4643 30.4378 15.0271 30.4378C7.5898 30.4378 1.52319 24.8047 1.52319 17.8698H28.5055Z" fill="url(#paint4_linear_310_272)"/>
<g opacity="0.6">
<path opacity="0.6" d="M27.4392 17.8698C27.4392 24.639 21.7026 30.1774 14.4938 30.4378C14.6715 30.4378 14.8492 30.4378 15.0268 30.4378C22.4641 30.4378 28.5053 24.8047 28.5053 17.8698H27.4392Z" fill="url(#paint5_linear_310_272)"/>
</g>
<g opacity="0.7">
<path opacity="0.7" d="M3.42695 17.8698H1.52319C1.52319 24.8047 7.56444 30.4378 15.0016 30.4378C15.3317 30.4378 15.6362 30.4378 15.9408 30.4141C8.96049 29.9408 3.42695 24.497 3.42695 17.8698Z" fill="url(#paint6_linear_310_272)"/>
</g>
<path d="M28.4802 17.9881C28.4802 16.5443 25.7895 15.7159 22.2105 15.4319C19.6215 15.2425 17.007 15.4792 14.0117 16.3313C11.4226 17.0413 9.08735 16.923 7.38671 16.7337C3.60459 16.3313 1.52319 16.2839 1.52319 17.9881C1.52319 20.4497 6.9044 23.5266 14.9763 22.4615C19.063 21.9171 21.1698 20.8047 23.5812 20.0473C26.1957 19.2425 28.4802 19.2662 28.4802 17.9881Z" fill="url(#paint7_linear_310_272)"/>
<path d="M19.4436 12.0236C20.7053 12.0236 21.7281 11.07 21.7281 9.8935C21.7281 8.71703 20.7053 7.76331 19.4436 7.76331C18.182 7.76331 17.1592 8.71703 17.1592 9.8935C17.1592 11.07 18.182 12.0236 19.4436 12.0236Z" fill="white"/>
<path d="M23.1746 13.6095C23.7074 13.6095 24.1392 13.2068 24.1392 12.71C24.1392 12.2133 23.7074 11.8107 23.1746 11.8107C22.6419 11.8107 22.2101 12.2133 22.2101 12.71C22.2101 13.2068 22.6419 13.6095 23.1746 13.6095Z" fill="white"/>
<g opacity="0.6">
<path opacity="0.6" d="M26.627 8.18921C26.6016 8.18921 26.5762 8.18921 26.5762 8.18921C26.4239 8.16553 26.3224 8.02357 26.3478 7.85784C26.5762 6.76914 27.5407 5.72765 27.5915 5.68035C27.693 5.562 27.8961 5.562 27.9977 5.65667C28.1245 5.75133 28.1245 5.94067 28.0231 6.03541C27.9977 6.05902 27.1092 7.02945 26.9062 7.9762C26.8808 8.11823 26.7539 8.18921 26.627 8.18921Z" fill="url(#paint8_linear_310_272)"/>
</g>
<path opacity="0.2" d="M14.0895 27.858C14.482 27.858 14.8002 27.5613 14.8002 27.1953C14.8002 26.8293 14.482 26.5326 14.0895 26.5326C13.697 26.5326 13.3788 26.8293 13.3788 27.1953C13.3788 27.5613 13.697 27.858 14.0895 27.858Z" fill="white"/>
<g opacity="0.4">
<path opacity="0.6" d="M13.6818 27.622C13.4026 27.3616 13.4026 26.9355 13.6818 26.6752C13.7326 26.6279 13.7834 26.6043 13.8341 26.5569C13.7326 26.5806 13.6564 26.6279 13.5803 26.6989C13.301 26.9592 13.301 27.3853 13.5803 27.6457C13.8087 27.8587 14.1641 27.906 14.4433 27.764C14.1894 27.8587 13.8849 27.8113 13.6818 27.622Z" fill="url(#paint9_linear_310_272)"/>
</g>
<path opacity="0.3" d="M14.3416 27.0058C14.4257 27.0058 14.494 26.9423 14.494 26.8638C14.494 26.7854 14.4257 26.7218 14.3416 26.7218C14.2575 26.7218 14.1893 26.7854 14.1893 26.8638C14.1893 26.9423 14.2575 27.0058 14.3416 27.0058Z" fill="white"/>
<path opacity="0.2" d="M17.7954 27.5266C18.1879 27.5266 18.5061 27.2299 18.5061 26.8639C18.5061 26.4979 18.1879 26.2012 17.7954 26.2012C17.4029 26.2012 17.0847 26.4979 17.0847 26.8639C17.0847 27.2299 17.4029 27.5266 17.7954 27.5266Z" fill="white"/>
<g opacity="0.4">
<path opacity="0.6" d="M17.3877 27.2906C17.1085 27.0302 17.1085 26.6041 17.3877 26.3438C17.4385 26.2964 17.4892 26.2728 17.54 26.2255C17.4385 26.2492 17.3624 26.2964 17.2862 26.3675C17.007 26.6278 17.007 27.0539 17.2862 27.3142C17.5146 27.5273 17.87 27.5746 18.1492 27.4326C17.8954 27.5273 17.5908 27.4799 17.3877 27.2906Z" fill="url(#paint10_linear_310_272)"/>
</g>
<path opacity="0.3" d="M18.0476 26.6746C18.1317 26.6746 18.1998 26.611 18.1998 26.5325C18.1998 26.4541 18.1317 26.3905 18.0476 26.3905C17.9634 26.3905 17.8953 26.4541 17.8953 26.5325C17.8953 26.611 17.9634 26.6746 18.0476 26.6746Z" fill="white"/>
<path opacity="0.2" d="M15.9662 29.0652C16.2606 29.0652 16.4992 28.8427 16.4992 28.5681C16.4992 28.2936 16.2606 28.071 15.9662 28.071C15.6717 28.071 15.4331 28.2936 15.4331 28.5681C15.4331 28.8427 15.6717 29.0652 15.9662 29.0652Z" fill="white"/>
<g opacity="0.4">
<path opacity="0.6" d="M15.6616 28.8764C15.4585 28.6871 15.4585 28.3557 15.6616 28.1664C15.6869 28.1427 15.7377 28.119 15.7631 28.0953C15.6869 28.119 15.6361 28.1664 15.5854 28.2137C15.3823 28.403 15.3823 28.7344 15.5854 28.9237C15.7631 29.0895 16.0169 29.1131 16.2454 28.9948C16.0423 29.0658 15.8139 29.0185 15.6616 28.8764Z" fill="url(#paint11_linear_310_272)"/>
</g>
<path opacity="0.3" d="M16.1437 28.4025C16.1997 28.4025 16.2452 28.36 16.2452 28.3078C16.2452 28.2555 16.1997 28.2131 16.1437 28.2131C16.0876 28.2131 16.0421 28.2555 16.0421 28.3078C16.0421 28.36 16.0876 28.4025 16.1437 28.4025Z" fill="white"/>
<path opacity="0.2" d="M19.2404 28.71C19.5348 28.71 19.7734 28.4875 19.7734 28.213C19.7734 27.9385 19.5348 27.7159 19.2404 27.7159C18.946 27.7159 18.7074 27.9385 18.7074 28.213C18.7074 28.4875 18.946 28.71 19.2404 28.71Z" fill="white"/>
<g opacity="0.4">
<path opacity="0.6" d="M18.9363 28.5215C18.7333 28.332 18.7333 28.0007 18.9363 27.8113C18.9617 27.7877 19.0125 27.764 19.0378 27.7404C18.9617 27.764 18.9109 27.8113 18.8602 27.8587C18.6571 28.048 18.6571 28.3794 18.8602 28.5687C19.0378 28.7345 19.2916 28.7581 19.5202 28.6397C19.3171 28.7108 19.0886 28.6634 18.9363 28.5215Z" fill="url(#paint12_linear_310_272)"/>
</g>
<path opacity="0.3" d="M19.4183 28.0474C19.4744 28.0474 19.5199 28.005 19.5199 27.9527C19.5199 27.9005 19.4744 27.858 19.4183 27.858C19.3623 27.858 19.3168 27.9005 19.3168 27.9527C19.3168 28.005 19.3623 28.0474 19.4183 28.0474Z" fill="white"/>
<path opacity="0.2" d="M11.0672 27.6214C11.7121 27.6214 12.2348 27.1339 12.2348 26.5326C12.2348 25.9313 11.7121 25.4438 11.0672 25.4438C10.4223 25.4438 9.89954 25.9313 9.89954 26.5326C9.89954 27.1339 10.4223 27.6214 11.0672 27.6214Z" fill="white"/>
<g opacity="0.4">
<path opacity="0.6" d="M10.4078 27.2191C9.95091 26.793 9.95091 26.1066 10.4078 25.6805C10.4839 25.6096 10.5601 25.5622 10.6617 25.5149C10.5094 25.5622 10.3824 25.6569 10.2555 25.7516C9.79862 26.1776 9.79862 26.864 10.2555 27.29C10.6363 27.6451 11.2201 27.7161 11.677 27.4557C11.2455 27.6214 10.7378 27.5504 10.4078 27.2191Z" fill="url(#paint13_linear_310_272)"/>
</g>
<path opacity="0.3" d="M11.4733 26.2011C11.6135 26.2011 11.7272 26.0952 11.7272 25.9645C11.7272 25.8337 11.6135 25.7278 11.4733 25.7278C11.3331 25.7278 11.2195 25.8337 11.2195 25.9645C11.2195 26.0952 11.3331 26.2011 11.4733 26.2011Z" fill="white"/>
<path opacity="0.2" d="M21.5003 24.9467C22.1451 24.9467 22.6679 24.4592 22.6679 23.8579C22.6679 23.2566 22.1451 22.7692 21.5003 22.7692C20.8554 22.7692 20.3326 23.2566 20.3326 23.8579C20.3326 24.4592 20.8554 24.9467 21.5003 24.9467Z" fill="white"/>
<g opacity="0.4">
<path opacity="0.6" d="M20.8143 24.5444C20.3574 24.1183 20.3574 23.432 20.8143 23.0059C20.8904 22.9349 20.9666 22.8876 21.0682 22.8402C20.9159 22.8876 20.7889 22.9822 20.662 23.0769C20.2051 23.503 20.2051 24.1894 20.662 24.6154C21.0427 24.9704 21.6265 25.0415 22.0835 24.7811C21.652 24.9467 21.1697 24.8757 20.8143 24.5444Z" fill="url(#paint14_linear_310_272)"/>
</g>
<path opacity="0.3" d="M21.9056 23.5266C22.0458 23.5266 22.1594 23.4207 22.1594 23.2899C22.1594 23.1592 22.0458 23.0532 21.9056 23.0532C21.7654 23.0532 21.6517 23.1592 21.6517 23.2899C21.6517 23.4207 21.7654 23.5266 21.9056 23.5266Z" fill="white"/>
<defs>
<radialGradient id="paint0_radial_310_272" cx="0" cy="0" r="1" gradientUnits="userSpaceOnUse" gradientTransform="translate(30.7332 4.35511) scale(11.3449 10.5786)">
<stop stop-color="#FFEAFF" stop-opacity="0.6"/>
<stop offset="0.6807" stop-color="#A087C9"/>
<stop offset="1" stop-color="#10002F"/>
</radialGradient>
<radialGradient id="paint1_radial_310_272" cx="0" cy="0" r="1" gradientUnits="userSpaceOnUse" gradientTransform="translate(24.4214 8.86662) scale(27.7568 25.8819)">
<stop stop-color="#FFEAFF" stop-opacity="0.6"/>
<stop offset="0.6807" stop-color="#A087C9"/>
<stop offset="1" stop-color="#10002F"/>
</radialGradient>
<linearGradient id="paint2_linear_310_272" x1="12.7509" y1="31.0313" x2="16.7102" y2="4.83565" gradientUnits="userSpaceOnUse">
<stop stop-color="#81FFFF"/>
<stop offset="0.6202" stop-color="white" stop-opacity="0"/>
</linearGradient>
<linearGradient id="paint3_linear_310_272" x1="25.0264" y1="9.00271" x2="14.0467" y2="19.8068" gradientUnits="userSpaceOnUse">
<stop offset="0.2888" stop-color="white"/>
<stop offset="0.7796" stop-color="white" stop-opacity="0"/>
</linearGradient>
<linearGradient id="paint4_linear_310_272" x1="1.53461" y1="24.1465" x2="28.499" y2="24.1465" gradientUnits="userSpaceOnUse">
<stop stop-color="#0002E9"/>
<stop offset="0.9952" stop-color="#FF00C7"/>
</linearGradient>
<linearGradient id="paint5_linear_310_272" x1="29.7752" y1="18.9727" x2="16.0693" y2="32.8637" gradientUnits="userSpaceOnUse">
<stop offset="0.2888" stop-color="white"/>
<stop offset="0.7796" stop-color="white" stop-opacity="0"/>
</linearGradient>
<linearGradient id="paint6_linear_310_272" x1="1.53461" y1="24.1465" x2="15.9604" y2="24.1465" gradientUnits="userSpaceOnUse">
<stop stop-color="#000292"/>
<stop offset="0.9952" stop-color="#7D00C7"/>
</linearGradient>
<linearGradient id="paint7_linear_310_272" x1="1.55271" y1="19.0322" x2="28.4809" y2="19.0322" gradientUnits="userSpaceOnUse">
<stop stop-color="#000292"/>
<stop offset="0.9952" stop-color="#BE00C7"/>
</linearGradient>
<linearGradient id="paint8_linear_310_272" x1="28.0389" y1="5.56506" x2="26.2936" y2="8.60665" gradientUnits="userSpaceOnUse">
<stop offset="0.2888" stop-color="white"/>
<stop offset="0.7796" stop-color="white" stop-opacity="0"/>
</linearGradient>
<linearGradient id="paint9_linear_310_272" x1="13.3702" y1="27.2163" x2="14.4441" y2="27.2163" gradientUnits="userSpaceOnUse">
<stop offset="0.2888" stop-color="white"/>
<stop offset="0.7796" stop-color="white" stop-opacity="0"/>
</linearGradient>
<linearGradient id="paint10_linear_310_272" x1="17.0734" y1="26.8803" x2="18.1474" y2="26.8803" gradientUnits="userSpaceOnUse">
<stop offset="0.2888" stop-color="white"/>
<stop offset="0.7796" stop-color="white" stop-opacity="0"/>
</linearGradient>
<linearGradient id="paint11_linear_310_272" x1="15.4298" y1="28.5744" x2="16.236" y2="28.5744" gradientUnits="userSpaceOnUse">
<stop offset="0.2888" stop-color="white"/>
<stop offset="0.7796" stop-color="white" stop-opacity="0"/>
</linearGradient>
<linearGradient id="paint12_linear_310_272" x1="18.6936" y1="28.2185" x2="19.4998" y2="28.2185" gradientUnits="userSpaceOnUse">
<stop offset="0.2888" stop-color="white"/>
<stop offset="0.7796" stop-color="white" stop-opacity="0"/>
</linearGradient>
<linearGradient id="paint13_linear_310_272" x1="9.90124" y1="26.5604" x2="11.655" y2="26.5604" gradientUnits="userSpaceOnUse">
<stop offset="0.2888" stop-color="white"/>
<stop offset="0.7796" stop-color="white" stop-opacity="0"/>
</linearGradient>
<linearGradient id="paint14_linear_310_272" x1="20.3174" y1="23.8849" x2="22.0713" y2="23.8849" gradientUnits="userSpaceOnUse">
<stop offset="0.2888" stop-color="white"/>
<stop offset="0.7796" stop-color="white" stop-opacity="0"/>
</linearGradient>
</defs>
</svg>
